<?xml version="1.0" encoding="UTF-8" standalone="no"?>
<!DOCTYPE svg PUBLIC "-//W3C//DTD SVG 1.1//EN" "http://www.w3.org/Graphics/SVG/1.1/DTD/svg11.dtd">
<svg width="100%" height="100%" viewBox="0 0 173 45" version="1.1" xmlns="http://www.w3.org/2000/svg" xmlns:xlink="http://www.w3.org/1999/xlink" xml:space="preserve" xmlns:serif="http://www.serif.com/" style="fill-rule:evenodd;clip-rule:evenodd;stroke-linejoin:round;stroke-miterlimit:2;">
    <g id="_Слой_1-2_">
        <g>
            <g>
                <path d="M10.7,0L12.38,0L22.66,27.03L20.35,27.03L17.62,19.74L5.45,19.74L2.72,27.03L0.42,27.03L10.7,0ZM16.99,17.81L11.54,3.43L6.08,17.81L16.99,17.81Z" style="fill-rule:nonzero;"/>
                <path d="M65.54,0L67.22,0L77.5,27.03L75.19,27.03L72.46,19.74L60.29,19.74L57.56,27.03L55.25,27.03L65.54,0ZM71.83,17.81L66.37,3.43L60.91,17.81L71.83,17.81Z" style="fill-rule:nonzero;"/>
                <path d="M37.95,2.74L29.98,2.74L29.98,0.87L47.95,0.87L47.95,2.74L39.99,2.74L39.99,27.03L37.95,27.03L37.95,2.74Z" style="fill-rule:nonzero;"/>
                <path d="M109.18,18.24C107.52,23.48 103.82,27.25 98.37,27.25C92.18,27.25 86.53,21.76 86.53,13.84C86.53,5.92 92.18,0.42 98.38,0.42C103.78,0.42 107.52,4.19 108.98,9.43L106.9,9.43C105.61,5.24 102.74,2.3 98.38,2.3C93.18,2.3 88.61,6.95 88.61,13.83C88.61,20.71 93.18,25.36 98.38,25.36C102.74,25.36 105.65,22.43 107.11,18.23L109.19,18.23L109.18,18.24Z" style="fill-rule:nonzero;"/>
                <path d="M122.52,0.42L124.61,0.42L124.61,12.3L138.8,12.3L138.8,0.42L140.89,0.42L140.89,26.68L138.8,26.68L138.8,14.18L124.61,14.18L124.61,26.68L122.52,26.68L122.52,0.42Z" style="fill-rule:nonzero;"/>
                <path d="M156.12,0.78L171.65,0.78L171.65,2.63L158.17,2.63L158.17,12.29L170.62,12.29L170.62,14.14L158.17,14.14L158.17,24.83L172.05,24.83L172.05,26.68L156.12,26.68L156.12,0.78Z" style="fill-rule:nonzero;"/>
            </g>
        </g>
    </g>
    <g id="Слой-1" transform="matrix(0.74789,0,0,0.74789,-19.5942,-79.7224)">
        <g transform="matrix(1,0,0,1,26.4439,155.965)">
            <path d="M0,6.884L0,0L5.723,0L5.723,6.884L5.062,6.884L5.062,0.594L0.661,0.594L0.661,6.884L0,6.884Z" style="fill:rgb(30,28,26);fill-rule:nonzero;"/>
        </g>
        <g transform="matrix(1,0,0,1,38.1053,158.435)">
            <path d="M0,3.941C0.774,3.941 1.417,3.674 1.93,3.138C2.443,2.603 2.699,1.88 2.699,0.971C2.699,0.09 2.436,-0.626 1.91,-1.174C1.383,-1.724 0.747,-1.998 0,-1.998C-0.747,-1.998 -1.402,-1.716 -1.964,-1.155C-2.526,-0.592 -2.808,0.121 -2.808,0.985C-2.808,1.84 -2.526,2.546 -1.964,3.104C-1.402,3.662 -0.747,3.941 0,3.941M-3.428,6.573L-3.428,-2.47L-2.767,-2.47L-2.767,-0.932C-2.02,-2.065 -1.075,-2.632 0.068,-2.632C0.949,-2.632 1.728,-2.302 2.402,-1.64C3.077,-0.979 3.415,-0.108 3.415,0.971C3.415,2.042 3.077,2.911 2.402,3.576C1.728,4.243 0.949,4.575 0.068,4.575C-1.102,4.575 -2.047,4.027 -2.767,2.929L-2.767,6.573L-3.428,6.573Z" style="fill:rgb(30,28,26);fill-rule:nonzero;"/>
        </g>
        <g transform="matrix(1,0,0,1,46.6625,156.424)">
            <path d="M0,5.966C0.764,5.966 1.424,5.674 1.977,5.089C2.531,4.504 2.808,3.802 2.808,2.983C2.808,2.156 2.531,1.452 1.977,0.871C1.424,0.29 0.756,0.001 -0.027,0.001C-0.801,0.001 -1.463,0.29 -2.011,0.871C-2.56,1.452 -2.834,2.156 -2.834,2.983C-2.834,3.811 -2.56,4.515 -2.011,5.096C-1.463,5.676 -0.792,5.966 0,5.966M2.504,5.521C1.824,6.232 0.98,6.587 -0.027,6.587C-1.035,6.587 -1.874,6.234 -2.544,5.528C-3.215,4.821 -3.55,3.973 -3.55,2.983C-3.55,2.003 -3.21,1.157 -2.531,0.446C-1.851,-0.265 -1.008,-0.621 0,-0.621C1.008,-0.621 1.847,-0.267 2.517,0.439C3.188,1.146 3.523,1.994 3.523,2.983C3.523,3.964 3.183,4.81 2.504,5.521" style="fill:rgb(30,28,26);fill-rule:nonzero;"/>
        </g>
        <g transform="matrix(1,0,0,1,58.8237,156.032)">
            <path d="M0,6.344C1.439,6.344 2.159,5.354 2.159,3.374C2.159,2.448 1.978,1.721 1.613,1.195C1.249,0.668 0.711,0.405 0,0.405C-0.666,0.405 -1.251,0.679 -1.755,1.229L-1.755,5.521C-1.251,6.069 -0.666,6.344 0,6.344M-4.171,6.344C-3.505,6.344 -2.92,6.069 -2.416,5.521L-2.416,1.229C-2.92,0.679 -3.505,0.405 -4.171,0.405C-4.881,0.405 -5.419,0.671 -5.784,1.201C-6.148,1.732 -6.33,2.465 -6.33,3.401C-6.33,5.363 -5.61,6.344 -4.171,6.344M-2.416,8.976L-2.416,6.196C-3.019,6.717 -3.626,6.978 -4.238,6.978C-5.084,6.978 -5.763,6.652 -6.276,6C-6.789,5.347 -7.045,4.464 -7.045,3.348C-7.045,2.241 -6.789,1.368 -6.276,0.729C-5.763,0.09 -5.084,-0.229 -4.238,-0.229C-3.608,-0.229 -3.001,0.041 -2.416,0.581L-2.416,-2.632L-1.755,-2.632L-1.755,0.581C-1.476,0.32 -1.199,0.119 -0.924,-0.02C-0.65,-0.16 -0.32,-0.229 0.068,-0.229C0.913,-0.229 1.593,0.092 2.106,0.736C2.619,1.379 2.875,2.259 2.875,3.374C2.875,4.481 2.616,5.359 2.099,6.006C1.581,6.654 0.905,6.978 0.068,6.978C-0.347,6.978 -0.679,6.915 -0.931,6.789C-1.183,6.664 -1.458,6.465 -1.755,6.196L-1.755,8.976L-2.416,8.976Z" style="fill:rgb(30,28,26);fill-rule:nonzero;"/>
        </g>
        <g transform="matrix(1,0,0,1,63.9928,159.731)">
            <path d="M0,-0.648L5.008,-0.648C4.954,-1.404 4.715,-2.038 4.293,-2.551C3.869,-3.064 3.284,-3.32 2.538,-3.32C1.863,-3.32 1.287,-3.066 0.81,-2.558C0.333,-2.049 0.063,-1.412 0,-0.648M2.672,3.28C1.746,3.28 0.952,2.943 0.291,2.268C-0.371,1.593 -0.702,0.724 -0.702,-0.337C-0.702,-1.345 -0.389,-2.195 0.236,-2.888C0.862,-3.581 1.638,-3.928 2.565,-3.928C3.509,-3.928 4.272,-3.586 4.852,-2.902C5.433,-2.218 5.723,-1.359 5.723,-0.324C5.723,-0.216 5.718,-0.126 5.71,-0.054L0,-0.054C0.063,0.774 0.353,1.433 0.871,1.923C1.388,2.414 1.998,2.659 2.7,2.659C3.6,2.659 4.387,2.299 5.062,1.579L5.521,1.984C4.72,2.848 3.77,3.28 2.672,3.28" style="fill:rgb(30,28,26);fill-rule:nonzero;"/>
        </g>
        <g transform="matrix(1,0,0,1,74.6826,155.803)">
            <path d="M0,7.208C-0.99,7.208 -1.822,6.857 -2.497,6.155C-3.172,5.453 -3.509,4.603 -3.509,3.604C-3.509,2.614 -3.169,1.766 -2.49,1.06C-1.811,0.354 -0.981,0 0,0C1.071,0 1.984,0.428 2.74,1.283L2.281,1.755C1.543,0.999 0.778,0.621 -0.013,0.621C-0.778,0.621 -1.433,0.914 -1.977,1.498C-2.522,2.083 -2.794,2.785 -2.794,3.604C-2.794,4.432 -2.519,5.136 -1.971,5.716C-1.422,6.297 -0.751,6.587 0.041,6.587C0.86,6.587 1.62,6.196 2.322,5.413L2.808,5.845C2.007,6.754 1.071,7.208 0,7.208" style="fill:rgb(30,28,26);fill-rule:nonzero;"/>
        </g>
        <g transform="matrix(1,0,0,1,82.3897,155.803)">
            <path d="M0,7.208C-0.99,7.208 -1.822,6.857 -2.497,6.155C-3.172,5.453 -3.509,4.603 -3.509,3.604C-3.509,2.614 -3.169,1.766 -2.49,1.06C-1.811,0.354 -0.981,0 0,0C1.071,0 1.984,0.428 2.74,1.283L2.281,1.755C1.543,0.999 0.778,0.621 -0.013,0.621C-0.778,0.621 -1.433,0.914 -1.977,1.498C-2.522,2.083 -2.794,2.785 -2.794,3.604C-2.794,4.432 -2.519,5.136 -1.971,5.716C-1.422,6.297 -0.751,6.587 0.041,6.587C0.86,6.587 1.62,6.196 2.322,5.413L2.808,5.845C2.007,6.754 1.071,7.208 0,7.208" style="fill:rgb(30,28,26);fill-rule:nonzero;"/>
        </g>
        <g transform="matrix(1,0,0,1,87.0601,155.965)">
            <path d="M0,6.884L0,0L0.661,0L0.661,6.007L5.331,0L5.992,0L5.992,6.884L5.331,6.884L5.331,0.878L0.661,6.884L0,6.884Z" style="fill:rgb(30,28,26);fill-rule:nonzero;"/>
        </g>
        <g transform="matrix(1,0,0,1,98.6408,156.424)">
            <path d="M0,5.966C0.764,5.966 1.424,5.674 1.977,5.089C2.531,4.504 2.808,3.802 2.808,2.983C2.808,2.156 2.531,1.452 1.977,0.871C1.424,0.29 0.756,0.001 -0.027,0.001C-0.801,0.001 -1.463,0.29 -2.011,0.871C-2.56,1.452 -2.834,2.156 -2.834,2.983C-2.834,3.811 -2.56,4.515 -2.011,5.096C-1.463,5.676 -0.792,5.966 0,5.966M2.504,5.521C1.824,6.232 0.98,6.587 -0.027,6.587C-1.035,6.587 -1.874,6.234 -2.544,5.528C-3.215,4.821 -3.55,3.973 -3.55,2.983C-3.55,2.003 -3.21,1.157 -2.531,0.446C-1.851,-0.265 -1.008,-0.621 0,-0.621C1.008,-0.621 1.847,-0.267 2.517,0.439C3.188,1.146 3.523,1.994 3.523,2.983C3.523,3.964 3.183,4.81 2.504,5.521" style="fill:rgb(30,28,26);fill-rule:nonzero;"/>
        </g>
        <g transform="matrix(1,0,0,1,104.202,155.965)">
            <path d="M0,6.884L0,0L0.661,0L0.661,3.064L5.237,3.064L5.237,0L5.898,0L5.898,6.884L5.237,6.884L5.237,3.658L0.661,3.658L0.661,6.884L0,6.884Z" style="fill:rgb(30,28,26);fill-rule:nonzero;"/>
        </g>
        <g transform="matrix(1,0,0,1,114.743,156.479)">
            <path d="M0,5.911C0.719,5.911 1.333,5.711 1.842,5.311C2.351,4.91 2.605,4.404 2.605,3.792L2.605,3.01C1.795,2.802 1.017,2.699 0.27,2.699C-0.45,2.699 -1.006,2.845 -1.397,3.138C-1.789,3.43 -1.984,3.828 -1.984,4.332C-1.984,4.827 -1.805,5.214 -1.444,5.493C-1.085,5.772 -0.603,5.911 0,5.911M-0.041,6.532C-0.796,6.532 -1.429,6.341 -1.937,5.958C-2.446,5.576 -2.7,5.038 -2.7,4.346C-2.7,3.644 -2.425,3.095 -1.876,2.699C-1.327,2.303 -0.599,2.105 0.31,2.105C1.084,2.105 1.844,2.204 2.591,2.402L2.591,2.105C2.591,1.421 2.393,0.899 1.997,0.539C1.601,0.179 1.044,-0.001 0.323,-0.001C-0.397,-0.001 -1.116,0.184 -1.836,0.553L-2.079,-0.028C-1.224,-0.424 -0.41,-0.621 0.364,-0.621C1.309,-0.621 2.033,-0.369 2.537,0.134C3.005,0.602 3.239,1.25 3.239,2.078L3.239,6.37L2.591,6.37L2.591,5.223C1.971,6.096 1.093,6.532 -0.041,6.532" style="fill:rgb(30,28,26);fill-rule:nonzero;"/>
        </g>
        <g transform="matrix(1,0,0,1,119.912,155.965)">
            <path d="M0,6.992C-0.252,6.992 -0.504,6.956 -0.756,6.884L-0.635,6.276C-0.41,6.34 -0.235,6.371 -0.108,6.371C0.072,6.371 0.218,6.351 0.331,6.31C0.443,6.27 0.567,6.186 0.702,6.061C0.836,5.935 0.945,5.737 1.025,5.467C1.107,5.197 1.185,4.846 1.262,4.414C1.338,3.982 1.394,3.429 1.431,2.754C1.466,2.079 1.485,1.282 1.485,0.365L1.485,0L6.168,0L6.168,6.884L5.507,6.884L5.507,0.594L2.119,0.594L2.119,0.783C2.119,1.899 2.083,2.844 2.011,3.618C1.939,4.391 1.849,4.997 1.741,5.433C1.633,5.869 1.48,6.207 1.282,6.445C1.084,6.684 0.892,6.834 0.708,6.898C0.524,6.96 0.288,6.992 0,6.992" style="fill:rgb(30,28,26);fill-rule:nonzero;"/>
        </g>
        <g transform="matrix(1,0,0,1,129.252,156.559)">
            <path d="M0,5.696L2.065,5.696C2.65,5.696 3.113,5.557 3.455,5.277C3.797,4.999 3.968,4.607 3.968,4.103C3.968,3.644 3.793,3.287 3.442,3.03C3.091,2.774 2.614,2.645 2.011,2.645L0,2.645L0,5.696ZM-0.661,6.29L-0.661,-0.594L0,-0.594L0,2.051L2.051,2.051C2.816,2.051 3.446,2.22 3.941,2.558C4.436,2.895 4.684,3.401 4.684,4.076C4.684,4.742 4.454,5.277 3.995,5.682C3.536,6.087 2.929,6.29 2.173,6.29L-0.661,6.29Z" style="fill:rgb(30,28,26);fill-rule:nonzero;"/>
        </g>
        <g transform="matrix(1,0,0,1,135.731,155.965)">
            <path d="M0,6.884L0,0L0.661,0L0.661,3.064L5.237,3.064L5.237,0L5.898,0L5.898,6.884L5.237,6.884L5.237,3.658L0.661,3.658L0.661,6.884L0,6.884Z" style="fill:rgb(30,28,26);fill-rule:nonzero;"/>
        </g>
        <g transform="matrix(1,0,0,1,146.272,156.479)">
            <path d="M0,5.911C0.719,5.911 1.333,5.711 1.842,5.311C2.351,4.91 2.605,4.404 2.605,3.792L2.605,3.01C1.795,2.802 1.017,2.699 0.27,2.699C-0.45,2.699 -1.006,2.845 -1.397,3.138C-1.789,3.43 -1.984,3.828 -1.984,4.332C-1.984,4.827 -1.805,5.214 -1.444,5.493C-1.085,5.772 -0.603,5.911 0,5.911M-0.041,6.532C-0.796,6.532 -1.429,6.341 -1.937,5.958C-2.446,5.576 -2.7,5.038 -2.7,4.346C-2.7,3.644 -2.425,3.095 -1.876,2.699C-1.327,2.303 -0.599,2.105 0.31,2.105C1.084,2.105 1.844,2.204 2.591,2.402L2.591,2.105C2.591,1.421 2.393,0.899 1.997,0.539C1.602,0.179 1.044,-0.001 0.323,-0.001C-0.397,-0.001 -1.116,0.184 -1.836,0.553L-2.079,-0.028C-1.224,-0.424 -0.41,-0.621 0.364,-0.621C1.309,-0.621 2.033,-0.369 2.537,0.134C3.005,0.602 3.239,1.25 3.239,2.078L3.239,6.37L2.591,6.37L2.591,5.223C1.971,6.096 1.093,6.532 -0.041,6.532" style="fill:rgb(30,28,26);fill-rule:nonzero;"/>
        </g>
        <g transform="matrix(1,0,0,1,154.167,159.204)">
            <path d="M0,0.406L2.295,0.406L2.295,-2.644L-0.027,-2.644C-0.621,-2.644 -1.086,-2.51 -1.424,-2.24C-1.761,-1.97 -1.93,-1.605 -1.93,-1.146C-1.93,-0.678 -1.75,-0.302 -1.39,-0.019C-1.03,0.264 -0.567,0.406 0,0.406M-2.834,3.645L-0.661,0.905C-1.237,0.797 -1.712,0.559 -2.085,0.19C-2.459,-0.179 -2.646,-0.638 -2.646,-1.187C-2.646,-1.799 -2.421,-2.293 -1.971,-2.672C-1.521,-3.05 -0.905,-3.239 -0.121,-3.239L2.956,-3.239L2.956,3.645L2.295,3.645L2.295,1L0.027,1L-2.024,3.645L-2.834,3.645Z" style="fill:rgb(30,28,26);fill-rule:nonzero;"/>
        </g>
        <g transform="matrix(1,0,0,1,163.683,155.965)">
            <path d="M0,6.884L0,0L0.661,0L0.661,4.414L4.926,0L5.803,0L2.794,3.051L5.898,6.884L5.062,6.884L2.335,3.523L0.661,5.211L0.661,6.884L0,6.884Z" style="fill:rgb(30,28,26);fill-rule:nonzero;"/>
        </g>
        <g transform="matrix(1,0,0,1,174.265,156.424)">
            <path d="M0,5.966C0.764,5.966 1.424,5.674 1.977,5.089C2.531,4.504 2.808,3.802 2.808,2.983C2.808,2.156 2.531,1.452 1.977,0.871C1.424,0.29 0.756,0.001 -0.027,0.001C-0.801,0.001 -1.463,0.29 -2.011,0.871C-2.56,1.452 -2.834,2.156 -2.834,2.983C-2.834,3.811 -2.56,4.515 -2.011,5.096C-1.463,5.676 -0.792,5.966 0,5.966M2.504,5.521C1.824,6.232 0.98,6.587 -0.027,6.587C-1.035,6.587 -1.874,6.234 -2.544,5.528C-3.215,4.821 -3.55,3.973 -3.55,2.983C-3.55,2.003 -3.21,1.157 -2.531,0.446C-1.851,-0.265 -1.008,-0.621 0,-0.621C1.008,-0.621 1.847,-0.267 2.517,0.439C3.188,1.146 3.523,1.994 3.523,2.983C3.523,3.964 3.183,4.81 2.504,5.521" style="fill:rgb(30,28,26);fill-rule:nonzero;"/>
        </g>
        <g transform="matrix(1,0,0,1,182.863,155.803)">
            <path d="M0,7.208C-0.99,7.208 -1.822,6.857 -2.497,6.155C-3.172,5.453 -3.509,4.603 -3.509,3.604C-3.509,2.614 -3.169,1.766 -2.49,1.06C-1.811,0.354 -0.981,0 0,0C1.071,0 1.984,0.428 2.74,1.283L2.281,1.755C1.543,0.999 0.778,0.621 -0.013,0.621C-0.778,0.621 -1.433,0.914 -1.977,1.498C-2.522,2.083 -2.794,2.785 -2.794,3.604C-2.794,4.432 -2.519,5.136 -1.971,5.716C-1.422,6.297 -0.751,6.587 0.041,6.587C0.86,6.587 1.62,6.196 2.322,5.413L2.808,5.845C2.007,6.754 1.071,7.208 0,7.208" style="fill:rgb(30,28,26);fill-rule:nonzero;"/>
        </g>
        <g transform="matrix(1,0,0,1,187.533,155.965)">
            <path d="M0,6.884L0,0L0.594,0L3.401,3.955L6.209,0L6.803,0L6.803,6.884L6.141,6.884L6.141,1.148L3.374,4.954L0.634,1.148L0.634,6.884L0,6.884Z" style="fill:rgb(30,28,26);fill-rule:nonzero;"/>
        </g>
        <g transform="matrix(1,0,0,1,197.075,159.731)">
            <path d="M0,-0.648L5.008,-0.648C4.954,-1.404 4.715,-2.038 4.293,-2.551C3.869,-3.064 3.284,-3.32 2.538,-3.32C1.863,-3.32 1.287,-3.066 0.81,-2.558C0.333,-2.049 0.063,-1.412 0,-0.648M2.672,3.28C1.746,3.28 0.952,2.943 0.291,2.268C-0.371,1.593 -0.702,0.724 -0.702,-0.337C-0.702,-1.345 -0.389,-2.195 0.236,-2.888C0.862,-3.581 1.638,-3.928 2.565,-3.928C3.509,-3.928 4.272,-3.586 4.852,-2.902C5.433,-2.218 5.723,-1.359 5.723,-0.324C5.723,-0.216 5.718,-0.126 5.71,-0.054L0,-0.054C0.063,0.774 0.353,1.433 0.871,1.923C1.388,2.414 1.998,2.659 2.7,2.659C3.6,2.659 4.387,2.299 5.062,1.579L5.521,1.984C4.72,2.848 3.77,3.28 2.672,3.28" style="fill:rgb(30,28,26);fill-rule:nonzero;"/>
        </g>
        <g transform="matrix(1,0,0,1,210.883,155.965)">
            <path d="M0,8.827L0,6.883L-6.154,6.883L-6.154,0L-5.493,0L-5.493,6.29L-1.093,6.29L-1.093,0L-0.432,0L-0.432,6.29L0.675,6.29L0.54,8.827L0,8.827Z" style="fill:rgb(30,28,26);fill-rule:nonzero;"/>
        </g>
        <g transform="matrix(1,0,0,1,213.447,159.731)">
            <path d="M0,-0.648L5.008,-0.648C4.954,-1.404 4.715,-2.038 4.293,-2.551C3.869,-3.064 3.284,-3.32 2.538,-3.32C1.863,-3.32 1.287,-3.066 0.81,-2.558C0.333,-2.049 0.063,-1.412 0,-0.648M2.672,3.28C1.746,3.28 0.952,2.943 0.291,2.268C-0.371,1.593 -0.702,0.724 -0.702,-0.337C-0.702,-1.345 -0.389,-2.195 0.236,-2.888C0.862,-3.581 1.638,-3.928 2.565,-3.928C3.509,-3.928 4.272,-3.586 4.852,-2.902C5.433,-2.218 5.723,-1.359 5.723,-0.324C5.723,-0.216 5.718,-0.126 5.71,-0.054L0,-0.054C0.063,0.774 0.353,1.433 0.871,1.923C1.388,2.414 1.998,2.659 2.7,2.659C3.6,2.659 4.387,2.299 5.062,1.579L5.521,1.984C4.72,2.848 3.77,3.28 2.672,3.28" style="fill:rgb(30,28,26);fill-rule:nonzero;"/>
        </g>
        <g transform="matrix(1,0,0,1,221.762,156.559)">
            <path d="M0,5.696L2.551,5.696C3.127,5.696 3.581,5.572 3.914,5.325C4.247,5.077 4.413,4.742 4.413,4.319C4.413,3.914 4.24,3.599 3.894,3.374C3.547,3.149 3.046,3.037 2.389,3.037L0,3.037L0,5.696ZM0,2.484L2.389,2.484C2.884,2.484 3.282,2.369 3.584,2.139C3.885,1.91 4.036,1.584 4.036,1.161C4.036,0.81 3.896,0.528 3.617,0.317C3.338,0.106 2.942,0 2.429,0L0,0L0,2.484ZM-0.661,6.29L-0.661,-0.594L2.484,-0.594C3.159,-0.594 3.698,-0.439 4.103,-0.128C4.508,0.182 4.711,0.598 4.711,1.12C4.711,1.849 4.323,2.375 3.55,2.7C4.009,2.816 4.382,3.019 4.67,3.307C4.958,3.595 5.102,3.964 5.102,4.414C5.102,4.98 4.877,5.435 4.427,5.777C3.977,6.119 3.379,6.29 2.632,6.29L-0.661,6.29Z" style="fill:rgb(30,28,26);fill-rule:nonzero;"/>
        </g>
        <g transform="matrix(1,0,0,1,230.656,155.965)">
            <path d="M0,6.884L0,0.594L-2.578,0.594L-2.578,0L3.24,0L3.24,0.594L0.662,0.594L0.662,6.884L0,6.884Z" style="fill:rgb(30,28,26);fill-rule:nonzero;"/>
        </g>
        <g transform="matrix(1,0,0,1,235.556,155.965)">
            <path d="M0,6.884L0,0L0.661,0L0.661,6.007L5.331,0L5.992,0L5.992,6.884L5.331,6.884L5.331,0.878L0.661,6.884L0,6.884Z" style="fill:rgb(30,28,26);fill-rule:nonzero;"/>
        </g>
        <g transform="matrix(1,0,0,1,244.059,155.965)">
            <path d="M0,6.884L0,0L0.661,0L0.661,4.414L4.926,0L5.803,0L2.794,3.051L5.898,6.884L5.062,6.884L2.335,3.523L0.661,5.211L0.661,6.884L0,6.884Z" style="fill:rgb(30,28,26);fill-rule:nonzero;"/>
        </g>
        <g transform="matrix(1,0,0,1,253.697,156.479)">
            <path d="M0,5.911C0.719,5.911 1.333,5.711 1.842,5.311C2.351,4.91 2.605,4.404 2.605,3.792L2.605,3.01C1.795,2.802 1.017,2.699 0.27,2.699C-0.45,2.699 -1.006,2.845 -1.397,3.138C-1.789,3.43 -1.984,3.828 -1.984,4.332C-1.984,4.827 -1.805,5.214 -1.444,5.493C-1.085,5.772 -0.603,5.911 0,5.911M-0.041,6.532C-0.796,6.532 -1.429,6.341 -1.937,5.958C-2.446,5.576 -2.7,5.038 -2.7,4.346C-2.7,3.644 -2.425,3.095 -1.876,2.699C-1.327,2.303 -0.599,2.105 0.31,2.105C1.084,2.105 1.844,2.204 2.591,2.402L2.591,2.105C2.591,1.421 2.393,0.899 1.997,0.539C1.601,0.179 1.044,-0.001 0.323,-0.001C-0.397,-0.001 -1.116,0.184 -1.836,0.553L-2.079,-0.028C-1.224,-0.424 -0.41,-0.621 0.364,-0.621C1.309,-0.621 2.033,-0.369 2.537,0.134C3.005,0.602 3.239,1.25 3.239,2.078L3.239,6.37L2.591,6.37L2.591,5.223C1.971,6.096 1.093,6.532 -0.041,6.532" style="fill:rgb(30,28,26);fill-rule:nonzero;"/>
        </g>
    </g>
</svg>