<?xml version="1.0" encoding="UTF-8" standalone="no"?>
<!DOCTYPE svg PUBLIC "-//W3C//DTD SVG 1.1//EN" "http://www.w3.org/Graphics/SVG/1.1/DTD/svg11.dtd">
<svg width="100%" height="100%" viewBox="0 0 600 376" version="1.1" xmlns="http://www.w3.org/2000/svg" xmlns:xlink="http://www.w3.org/1999/xlink" xml:space="preserve" xmlns:serif="http://www.serif.com/" style="fill-rule:evenodd;clip-rule:evenodd;stroke-linejoin:round;stroke-miterlimit:2;">
    <g transform="matrix(1.61333,0,0,1.61333,-115.1,0.682455)">
        <path d="M85.447,209.895C84.43,208.267 82.651,207.578 80.827,207.578C78.174,207.578 75.43,208.818 75.43,211.814C75.43,214.142 76.719,215.164 80.759,216.448C84.694,217.696 88.342,218.966 88.342,223.967C88.342,228.997 84,231.365 79.448,231.365C76.509,231.365 73.35,230.392 71.632,227.867L74.202,225.757C75.28,227.612 77.428,228.583 79.621,228.583C82.169,228.583 85.115,227.075 85.115,224.189C85.115,221.065 83.02,220.515 78.506,219.023C74.926,217.828 72.205,216.282 72.205,212.066C72.205,207.209 76.403,204.77 80.827,204.77C83.669,204.77 86.05,205.554 87.912,207.732L85.447,209.895Z" style="fill:rgb(35,31,32);fill-rule:nonzero;"/>
        <path d="M121.927,205.407L124.934,205.407L124.934,216.336L125.372,216.336L136.888,205.407L141.199,205.407L128.696,216.965L141.817,230.727L137.423,230.727L125.372,217.828L124.934,217.828L124.934,230.727L121.927,230.727L121.927,205.407Z" style="fill:rgb(35,31,32);fill-rule:nonzero;"/>
        <rect x="173.081" y="205.407" width="3.007" height="25.321" style="fill:rgb(35,31,32);fill-rule:nonzero;"/>
        <path d="M210.984,205.407L214.783,205.407L229.45,226.439L229.533,226.439L229.533,205.407L232.532,205.407L232.532,230.727L228.741,230.727L214.074,209.7L213.999,209.7L213.999,230.727L210.984,230.727L210.984,205.407Z" style="fill:rgb(35,31,32);fill-rule:nonzero;"/>
        <path d="M285.185,210.637C283.685,208.587 281.289,207.578 278.832,207.578C273.194,207.578 269.184,212.531 269.184,218.07C269.184,223.933 273.171,228.583 278.832,228.583C281.929,228.583 284.393,227.324 286.18,225.027L288.417,226.929C286.18,229.97 282.894,231.365 278.832,231.365C271.582,231.365 265.973,225.757 265.973,218.07C265.973,210.637 271.339,204.771 278.832,204.771C282.276,204.771 285.637,205.949 287.8,208.723L285.185,210.637Z" style="fill:rgb(35,31,32);fill-rule:nonzero;"/>
        <path d="M330.814,209.273L330.753,209.273L325.5,221.696L335.841,221.696L330.814,209.273ZM329.45,205.407L332.291,205.407L343.062,230.727L339.542,230.727L336.978,224.491L324.302,224.491L321.695,230.727L318.318,230.727L329.45,205.407Z" style="fill:rgb(35,31,32);fill-rule:nonzero;"/>
        <path d="M378.041,216.577L380.716,216.577C384.048,216.577 388.366,216.577 388.366,212.386C388.366,208.723 385.186,208.207 382.261,208.207L378.041,208.207L378.041,216.577ZM375.026,205.407L381.5,205.407C386.422,205.407 391.592,206.149 391.592,212.386C391.592,216.07 389.188,218.454 385.269,219.06L392.452,230.727L388.766,230.727L381.892,219.35L378.041,219.35L378.041,230.727L375.026,230.727L375.026,205.407Z" style="fill:rgb(35,31,32);fill-rule:nonzero;"/>
        <path d="M425.516,205.407L442.128,205.407L442.128,208.207L428.501,208.207L428.501,216.121L440.552,216.121L440.552,218.913L428.501,218.913L428.501,227.938L442.067,227.938L442.067,230.727L425.516,230.727L425.516,205.407Z" style="fill:rgb(35,31,32);fill-rule:nonzero;"/>
        <rect x="71.84" y="126.819" width="11.456" height="64.321" style="fill:rgb(35,31,32);fill-rule:nonzero;"/>
        <path d="M117.62,126.819L135.068,126.819L152.238,171.875L169.588,126.819L186.855,126.819L186.855,191.14L175.941,191.14L175.941,137.721L175.768,137.721L156.24,191.14L148.243,191.14L128.715,137.721L128.534,137.721L128.534,191.14L117.62,191.14L117.62,126.819Z" style="fill:rgb(35,31,32);fill-rule:nonzero;"/>
        <path d="M256.806,166.603L246.887,140.453L236.81,166.603L256.806,166.603ZM242.252,126.819L252.155,126.819L279.861,191.14L266.785,191.14L260.785,176.419L232.898,176.419L227.08,191.14L214.282,191.14L242.252,126.819Z" style="fill:rgb(35,31,32);fill-rule:nonzero;"/>
        <path d="M352.714,160.343L352.714,179.05C348.712,181.311 343.451,182.423 337.632,182.423C324.382,182.423 315.572,172.256 315.572,158.527C315.572,145.722 324.382,135.532 337.632,135.532C344.091,135.532 350.362,137.815 354.44,141.821L362.897,133.278C356.173,127.286 347.355,125.172 337.548,125.172C317.75,125.172 303.573,138.633 303.573,159.244C303.573,179.34 317.75,192.76 337.548,192.76C347.468,192.76 356.339,190.582 364.163,186.41L364.163,160.343L352.714,160.343Z" style="fill:rgb(35,31,32);fill-rule:nonzero;"/>
        <path d="M397.695,126.819L440.301,126.819L440.301,137.164L409.128,137.164L409.128,152.987L435.033,152.987L435.033,163.343L409.128,163.343L409.128,180.769L441.921,180.769L441.921,191.14L397.695,191.14L397.695,126.819Z" style="fill:rgb(35,31,32);fill-rule:nonzero;"/>
        <path d="M289.556,7.321C295.986,6.615 309.707,5.443 313.13,5.339L313.13,0.24L200.63,0.24L200.63,5.339C204.054,5.443 217.775,6.615 224.205,7.321C240.004,9.181 242.031,11.047 241.737,16.757L238.104,90.684C237.863,94.067 236.458,97.546 220.381,98.582C214.394,98.967 203.82,99.125 200.63,99.208L200.63,104.424L313.13,104.424L313.13,99.208C309.941,99.125 299.367,98.967 293.38,98.582C277.303,97.546 275.898,94.067 275.658,90.684L272.023,16.757C271.73,11.047 273.757,9.181 289.556,7.321Z" style="fill:rgb(176,177,177);"/>
    </g>
</svg>