<svg width="131" height="50" viewBox="0 0 131 50" fill="none" xmlns="http://www.w3.org/2000/svg">
<g clip-path="url(#clip0_1320_6665)">
<path fill-rule="evenodd" clip-rule="evenodd" d="M52.9282 5.49275H51.0819L48.1052 13.2202L44.9864 5.49275H43.0151L47.3326 15.9523H48.7244L52.9282 5.49275ZM55.1039 15.918H56.9502V5.49275H55.1039V15.918ZM59.3078 7.20171H62.7106V15.918H64.5512V7.20171H67.9654V5.49275H59.3078V7.20171ZM67.8176 15.918L72.2544 5.44702H73.8734L78.3158 15.918H76.3446L75.2595 13.2431H70.766L69.6696 15.918H67.812H67.8176ZM73.0213 7.81899L71.4761 11.5284H74.5494L73.0213 7.81899ZM80.4121 15.918H86.9848V14.209H82.264V5.49275H80.4177V15.918H80.4121ZM44.5035 31.2529H50.7297V29.5325H46.3498V26.8405H50.1219V25.1315H46.3498V22.5481H50.582V20.8277H44.5035V31.2529ZM57.8819 28.4751C57.8819 29.2639 57.2172 29.6983 56.3424 29.6983C55.53 29.6983 54.5472 29.3039 53.9337 28.5266L52.8771 29.7783C53.3883 30.8357 54.9562 31.413 56.314 31.413C58.2852 31.413 59.819 30.2298 59.819 28.458C59.819 24.9943 55.0699 25.6802 55.0699 23.514C55.0699 22.8281 55.6266 22.3595 56.5355 22.3595C57.3706 22.3595 57.8819 22.6452 58.3931 23.1368L59.3873 21.765C58.7567 21.0792 57.666 20.6448 56.3878 20.6448C54.3484 20.6448 53.1157 21.9594 53.1157 23.5254C53.1157 26.9205 57.8762 26.4232 57.8762 28.4694M66.6928 28.4694C66.6928 29.2582 66.0339 29.6926 65.1647 29.6926C64.3523 29.6926 63.3696 29.2982 62.7447 28.5209L61.6937 29.7726C62.2107 30.83 63.7843 31.4072 65.142 31.4072C67.1019 31.4072 68.647 30.2241 68.647 28.4523C68.647 24.9886 63.8922 25.6745 63.8922 23.5083C63.8922 22.8224 64.4546 22.3537 65.3635 22.3537C66.2043 22.3537 66.7042 22.6395 67.2212 23.1311L68.2153 21.7593C67.5847 21.0735 66.5054 20.6391 65.2101 20.6391C63.1707 20.6391 61.938 21.9537 61.938 23.5197C61.938 26.9148 66.6928 26.4175 66.6928 28.4637M71.2943 31.2415H77.5205V29.5211H73.1406V26.8291H76.924V25.1201H73.1406V22.5366H77.3785V20.8162H71.2886V31.2415H71.2943ZM89.4219 31.2415V20.8162H87.7006V28.0636L81.9232 20.8162H80.4575V31.2415H82.1731V24.0227L87.9505 31.2415H89.4162H89.4219ZM91.5522 22.5366H94.9663V31.2415H96.8126V22.5366H100.215V20.8162H91.5522V22.5366ZM102.573 31.2415H104.419V20.822H102.573V31.2415ZM106.726 31.2415H108.589L109.685 28.5666H114.168L115.258 31.2415H117.224L112.787 20.7705H111.174L106.726 31.2415ZM111.941 23.1425L113.463 26.8519H110.395L111.941 23.1425ZM119.331 31.2415H125.904V29.5211H121.178V20.8105H119.331V31.2358V31.2415ZM51.792 44.1873C51.0649 44.736 50.1787 45.0218 49.3038 45.0218C47.1508 45.0218 45.6681 43.5357 45.6681 41.3581C45.6681 39.1804 47.1337 37.6887 49.0879 37.6887C50.1332 37.6887 50.8263 37.9687 51.4625 38.3803L52.2749 37.0257C51.5932 36.397 50.4457 35.974 49.0879 35.974C45.6226 35.974 43.7196 38.3574 43.7196 41.3524C43.7196 44.5988 45.918 46.7365 49.1334 46.7365C50.4968 46.7365 51.8375 46.2449 52.4908 45.5533L51.792 44.1816V44.1873ZM53.6383 41.3581C53.6383 44.6045 55.9731 46.7422 59.0862 46.7422C62.1993 46.7422 64.5682 44.4845 64.5682 41.3581C64.5682 38.2317 62.2107 35.9797 59.0862 35.9797C55.9618 35.9797 53.6383 38.3231 53.6383 41.3581ZM55.5811 41.3581C55.5811 39.1919 57.0809 37.6887 59.0862 37.6887C61.0915 37.6887 62.6197 39.1919 62.6197 41.3581C62.6197 43.5243 61.2961 45.0218 59.0862 45.0218C57.1263 45.0218 55.5811 43.4386 55.5811 41.3581ZM71.442 43.7986C71.442 44.5874 70.7774 45.0218 69.9025 45.0218C69.1015 45.0218 68.1074 44.6388 67.4938 43.8501L66.4372 45.0961C66.9542 46.1592 68.5278 46.7479 69.8741 46.7479C71.8454 46.7479 73.3905 45.5476 73.3905 43.7929C73.3905 40.3178 68.63 41.0037 68.63 38.8432C68.63 38.1574 69.181 37.6944 70.0957 37.6944C70.9364 37.6944 71.442 37.9745 71.9647 38.466L72.9474 37.0943C72.3282 36.4084 71.2489 35.9854 69.948 35.9854C67.9085 35.9854 66.6758 37.2886 66.6758 38.8604C66.6758 42.2554 71.4363 41.7525 71.4363 43.8044M76.0435 46.5764H77.8898V39.089L81.2415 43.6786H81.5085L84.8204 39.049V46.5821H86.6439V36.1626H84.9056L81.4857 41.038L77.9011 36.1626H76.0378V46.5821L76.0435 46.5764ZM90.0808 46.5764H96.307V44.8675H91.9271V42.1754H95.7105V40.455H91.9271V37.8716H96.1593V36.1626H90.0808V46.5821V46.5764ZM97.9317 37.8716H101.34V46.5764H103.187V37.8716H106.578V36.1626H97.9317V37.8716ZM108.947 46.5764H110.793V36.1569H108.947V46.5764ZM121.746 44.1987C121.019 44.7474 120.138 45.0332 119.252 45.0332C117.11 45.0332 115.628 43.5472 115.628 41.3695C115.628 39.1919 117.099 37.7001 119.047 37.7001C120.098 37.7001 120.791 37.9802 121.422 38.3917L122.24 37.0371C121.558 36.4084 120.411 35.9854 119.047 35.9854C115.582 35.9854 113.685 38.3688 113.685 41.3638C113.685 44.6103 115.889 46.7479 119.099 46.7479C120.468 46.7479 121.797 46.2563 122.45 45.5648L121.751 44.193L121.746 44.1987ZM129.029 43.8101C129.029 44.5988 128.364 45.0332 127.495 45.0332C126.688 45.0332 125.694 44.6503 125.086 43.8615L124.035 45.1075C124.546 46.1706 126.126 46.7593 127.472 46.7593C129.443 46.7593 130.989 45.559 130.989 43.8044C130.989 40.3293 126.228 41.0152 126.228 38.8547C126.228 38.1688 126.779 37.7058 127.694 37.7058C128.534 37.7058 129.04 37.9859 129.557 38.4774L130.54 37.1057C129.921 36.4198 128.841 35.9969 127.54 35.9969C125.507 35.9969 124.268 37.3 124.268 38.8718C124.268 42.2669 129.029 41.7639 129.029 43.8158" fill="#7586A3"/>
<path fill-rule="evenodd" clip-rule="evenodd" d="M11.6343 23.1653V40.2949H21.1951V36.8084H15.4177V33.4819H20.1782V29.9897H15.4177V26.6518H21.1951V23.1653H11.6343Z" fill="#7586A3"/>
<path fill-rule="evenodd" clip-rule="evenodd" d="M16.588 9.47645L6.11819 28.7266H0.619141L16.588 0L32.5568 28.7266H27.0521L16.588 9.47645Z" fill="#7586A3"/>
<path fill-rule="evenodd" clip-rule="evenodd" d="M0 33.7391C0 33.8763 0 34.0192 0 34.1506C0.232914 42.9412 7.56687 49.9943 16.5824 49.9943C25.5978 49.9943 32.9375 42.9412 33.1647 34.1564C33.1647 34.0135 33.1647 33.8763 33.1647 33.7334H28.2167C28.2167 33.8363 28.211 33.9334 28.211 34.0363C28.052 40.3578 23.0415 45.3075 16.5824 45.3075C10.1232 45.3075 5.11843 40.3578 4.95369 34.042C4.95369 33.9392 4.95369 33.842 4.95369 33.7334H0V33.7391Z" fill="#7586A3"/>
</g>
<defs>
<clipPath id="clip0_1320_6665">
<rect width="131" height="50" fill="white"/>
</clipPath>
</defs>
</svg>
