<svg xmlns="http://www.w3.org/2000/svg" width="117" height="99" viewBox="0 0 117 99">
  <g fill="#161616" fill-rule="evenodd">
    <path d="M19.2302 24.3628C22.8212 16.2948 29.4572 2.6668 30.9982.3548L24.4032.3548C24.7902 2.4828 17.0442 19.9038 16.6282 21.7848 16.6282 19.9318 9.6612 6.6748 8.1422.3548L.0002.3548C2.2682 3.5768 5.9262 11.0318 8.5922 16.6088 10.1502 19.8758 13.3152 26.4358 13.3152 26.9768 13.3502 34.1018 13.5272 39.6328 12.9892 46.8118L19.7732 46.8118C19.0092 39.6328 19.2502 31.8438 19.2302 24.3628M116.2795 13.3203C116.2795 13.3203 116.1115 4.8413 117.0005.6013L111.0875.6013C111.4545 2.2083 111.5905 6.0593 111.5905 6.0593 112.0765 15.8393 111.7875 33.1703 112.3085 35.8343 108.6785 29.4713 86.7315 2.5683 86.0155.5403L82.2555.5443C82.8255 2.7823 82.9835 17.1573 82.9665 17.1513 82.9665 17.1513 83.4975 40.1673 82.4955 46.8353L87.4185 46.8353C87.0345 43.0423 86.9445 42.1393 87.0105 39.1913 87.1715 32.2373 87.0345 13.8403 86.6095 11.4753 87.7965 14.0483 112.2745 45.4403 112.7465 46.8353 112.7405 46.8203 116.5185 46.8353 116.4565 46.8353 116.0295 44.5863 116.2795 13.3203 116.2795 13.3203"/>
    <path d="M72.4192 49.5781C71.7132 52.7511 66.1802 65.3391 62.6382 73.2741 59.5722 66.2161 56.0692 58.4431 52.8912 51.3811 56.2832 44.4701 57.9842 41.0871 63.0632 30.6191 63.9532 28.7871 64.0632 28.5631 66.0132 25.4021L60.1782 25.4021C59.5962 29.2081 49.4232 50.0991 49.2422 51.8281 49.2222 43.2241 48.8052 31.1571 49.6902 25.4021L42.9152 25.4021C43.7472 32.5941 43.6482 40.0511 43.6482 47.4541 34.4122 41.8491 31.3822 32.4091 31.6262 25.3961 32.1502 10.7681 44.3102 3.3221 52.0282 3.1481 58.6542 2.9911 72.0812 9.9011 72.8112 25.4021 73.0292 30.0191 70.9922 41.3291 60.2022 47.4541L69.1622 47.4541C74.5732 43.0401 78.9812 35.3371 79.0262 25.3991 79.0702 16.9931 71.5892.0001 52.0322.0001 34.2922.0001 25.7882 16.3251 25.7882 25.4081 25.7882 36.3061 30.3362 42.8241 35.2622 47.4541 38.0212 47.4541 40.9342 47.4541 43.6692 47.4671 43.8192 60.6031 44.0702 81.9461 43.2232 86.6261L49.8462 86.6261C49.0242 81.9541 49.1502 65.1121 49.1802 54.6401 49.3672 56.9211 61.7592 84.7591 61.4222 86.6261L69.0452 86.6261C67.5622 83.7911 66.7642 81.8661 64.7392 77.5941L65.9772 74.6831C72.7852 74.3491 73.6022 74.3121 81.2592 74.5831 82.8152 78.3961 85.5762 84.8881 85.7622 86.6261L93.9512 86.6261C90.2882 82.3271 77.8842 52.8121 77.2142 49.5781L72.4192 49.5781zM67.2862 71.6371C68.1322 69.6251 68.9762 67.7691 69.8292 65.9131 71.3272 62.6471 73.5392 57.9061 74.0522 55.9131 74.4632 57.7751 78.0972 66.4291 80.0472 71.6371L67.2862 71.6371zM48.1052 90.0947C47.8652 89.8857 47.5552 89.7407 47.1892 89.6627 46.9232 89.6107 46.5532 89.5697 46.0632 89.5697L43.2542 89.5697 43.2542 98.8277 44.2472 98.8277 44.2472 95.0587 46.1432 95.0587C47.1982 95.0587 47.9302 94.7837 48.3162 94.2457 48.7252 93.7027 48.9272 93.0307 48.9272 92.2557 48.9272 91.7837 48.8542 91.3667 48.7012 90.9837 48.5522 90.6147 48.3562 90.3027 48.1052 90.0947M47.5222 93.5297C47.2552 93.8217 46.8012 93.9657 46.1672 93.9657L44.2472 93.9657 44.2472 90.6657 46.1432 90.6657C46.5842 90.6657 46.8982 90.7027 47.0652 90.7497 47.3162 90.8347 47.5222 91.0197 47.6852 91.2937 47.8322 91.5717 47.9242 91.9007 47.9242 92.2817 47.9242 92.8317 47.7862 93.2337 47.5222 93.5297M56.7795 89.5693L53.8915 98.8283 54.9525 98.8283 55.7785 96.0343 58.9535 96.0343 59.8385 98.8283 60.9815 98.8283 57.8825 89.5693 56.7795 89.5693zM56.0665 95.0273L56.8865 92.3213C57.0685 91.7333 57.2075 91.1383 57.3115 90.5343 57.4435 91.0483 57.6265 91.6973 57.8545 92.4693L58.6445 95.0273 56.0665 95.0273zM72.1819 95.0849C72.0369 94.9309 71.8239 94.7749 71.5329 94.6169 72.3079 94.5009 72.8719 94.2119 73.2449 93.7549 73.6189 93.3169 73.8019 92.7549 73.8019 92.1009 73.8019 91.5929 73.6919 91.1259 73.4709 90.7059 73.2449 90.2859 72.9419 89.9929 72.5739 89.8289 72.1979 89.6619 71.6589 89.5689 70.9419 89.5689L67.3639 89.5689 67.3639 98.8279 68.4419 98.8279 68.4419 94.7199 69.6819 94.7199C69.9559 94.7199 70.1509 94.7399 70.2749 94.7719 70.4369 94.8159 70.5949 94.8919 70.7549 95.0089 70.9109 95.1309 71.0919 95.3409 71.2939 95.6249 71.4929 95.9209 71.7389 96.3569 72.0569 96.9099L73.1189 98.8279 74.4539 98.8279 73.0539 96.3089C72.7859 95.8179 72.4899 95.4089 72.1819 95.0849M70.7279 93.6609L68.4419 93.6609 68.4419 90.6019 70.9789 90.6019C71.5749 90.6019 72.0109 90.7349 72.2959 91.0189 72.5739 91.3019 72.7059 91.6639 72.7059 92.1009 72.7059 92.3949 72.6319 92.6759 72.4899 92.9349 72.3499 93.1879 72.1369 93.3729 71.8659 93.4949 71.5969 93.6049 71.2139 93.6609 70.7279 93.6609"/>
    <polygon points="79.418 98.828 80.836 98.828 80.836 89.569 79.418 89.569"/>
    <path d="M92.3811 93.9648C92.0961 93.8068 91.5701 93.6158 90.8031 93.3948 90.0411 93.1798 89.5761 92.9658 89.3871 92.7508 89.2011 92.5458 89.1131 92.2788 89.1131 91.9658 89.1131 91.5868 89.2471 91.2758 89.5031 91.0138 89.7721 90.7468 90.1721 90.6178 90.7461 90.6178 91.2901 90.6178 91.7091 90.7558 91.9891 91.0508 92.2661 91.3318 92.4291 91.7588 92.4821 92.3138L93.3901 92.2378C93.3731 91.7058 93.2541 91.2458 93.0421 90.8258 92.8261 90.4198 92.5171 90.1008 92.1101 89.8868 91.7041 89.6728 91.2401 89.5688 90.7101 89.5688 90.2281 89.5688 89.7951 89.6698 89.4001 89.8748 89.0141 90.0748 88.7121 90.3718 88.5131 90.7718 88.3021 91.1648 88.1941 91.5838 88.1941 92.0348 88.1941 92.4498 88.2821 92.8218 88.4521 93.1568 88.6221 93.4938 88.8741 93.7608 89.2071 93.9898 89.4721 94.1718 89.9351 94.3478 90.5761 94.5508 91.2401 94.7488 91.6521 94.8948 91.8531 94.9888 92.1511 95.1248 92.3551 95.3018 92.4901 95.5178 92.6231 95.7188 92.6911 95.9668 92.6911 96.2418 92.6911 96.5198 92.6151 96.7728 92.4831 97.0138 92.3491 97.2458 92.1511 97.4308 91.8771 97.5678 91.5991 97.6948 91.2811 97.7668 90.9231 97.7668 90.5191 97.7668 90.1511 97.6798 89.8311 97.5018 89.5031 97.3218 89.2651 97.0958 89.1091 96.8018 88.9581 96.5118 88.8601 96.1398 88.8121 95.6838L87.9281 95.7848C87.9421 96.3878 88.0701 96.9258 88.3231 97.4018 88.5611 97.8778 88.9101 98.2298 89.3461 98.4648 89.7831 98.7048 90.3231 98.8278 90.9571 98.8278 91.4791 98.8278 91.9321 98.7048 92.3391 98.4798 92.7481 98.2368 93.0641 97.9108 93.2781 97.4908 93.4881 97.0718 93.6001 96.6248 93.6001 96.1418 93.6001 95.6638 93.5091 95.2408 93.3051 94.8778 93.1031 94.5078 92.8011 94.2028 92.3811 93.9648M87.218 51.4638C87.218 50.0898 86.105 48.9718 84.735 48.9718 83.367 48.9718 82.255 50.0898 82.255 51.4638 82.255 52.8388 83.367 53.9578 84.735 53.9578 86.105 53.9578 87.218 52.8388 87.218 51.4638M82.624 51.4638C82.624 50.2948 83.572 49.3438 84.735 49.3438 85.901 49.3438 86.849 50.2948 86.849 51.4638 86.849 52.6338 85.901 53.5858 84.735 53.5858 83.572 53.5858 82.624 52.6338 82.624 51.4638"/>
    <path d="M85.9387,53.2109 L85.9597,53.2449 L86.5087,53.2449 L85.5027,51.6069 C86.0167,51.4619 86.2977,51.1349 86.2977,50.6779 C86.2977,50.0559 85.8037,49.6839 84.9747,49.6839 L83.6727,49.6839 L83.6727,53.2449 L84.1447,53.2449 L84.1447,51.6729 L85.0187,51.6729 L85.9387,53.2109 Z M85.8197,50.6479 C85.8197,50.9019 85.7447,51.0509 85.5597,51.1589 C85.3977,51.2519 85.2207,51.2839 84.8597,51.2839 L84.1447,51.2839 L84.1447,50.0739 L84.8387,50.0739 C85.2087,50.0739 85.3927,50.1059 85.5727,50.1999 C85.7347,50.2839 85.8197,50.4389 85.8197,50.6479 L85.8197,50.6479 Z"/>
  </g>
</svg>